<svg xmlns="http://www.w3.org/2000/svg" viewBox="0 0 60 60"><defs><style>.cls-1{fill:none;}.cls-2{fill:#c7c7c7;}</style></defs><title>behance</title><g id="Capa_2" data-name="Capa 2"><g id="Capa_1-2" data-name="Capa 1"><rect class="cls-1" width="60" height="60"/><path class="cls-2" d="M43.3,22.64H35V20.59H43.3ZM29.53,31.06a5.47,5.47,0,0,1,.8,3,6,6,0,0,1-.91,3.27A5.82,5.82,0,0,1,28,39a5.67,5.67,0,0,1-2.31,1,14.71,14.71,0,0,1-2.9.28H13.5V19.73h9.92q3.75.06,5.31,2.19a5.21,5.21,0,0,1,.94,3.14,4.58,4.58,0,0,1-.94,3,4.91,4.91,0,0,1-1.57,1.17,4.52,4.52,0,0,1,2.37,1.81ZM18.24,27.83h4.34a4.1,4.1,0,0,0,2.17-.51,1.93,1.93,0,0,0,.83-1.81,1.82,1.82,0,0,0-1.1-1.89,7.79,7.79,0,0,0-2.42-.32H18.24Zm7.76,6a2.19,2.19,0,0,0-1.3-2.2,5.13,5.13,0,0,0-2.06-.35h-4.4V36.7h4.34a4.81,4.81,0,0,0,2.07-.36A2.59,2.59,0,0,0,26,33.78Zm20.37-3.34a20.31,20.31,0,0,1,.13,2.92H35.79a3.53,3.53,0,0,0,1.53,3.1,3.92,3.92,0,0,0,2.12.55,3.26,3.26,0,0,0,2.14-.67,3.2,3.2,0,0,0,.79-1h3.92A4.76,4.76,0,0,1,44.87,38a7.18,7.18,0,0,1-5.53,2.14,8,8,0,0,1-5.18-1.81q-2.25-1.82-2.25-5.89a8,8,0,0,1,2-5.86,7,7,0,0,1,5.26-2,8.38,8.38,0,0,1,3.46.69,6,6,0,0,1,2.54,2.17,7.31,7.31,0,0,1,1.17,3.05Zm-3.86.38a3.28,3.28,0,0,0-1-2.33,3.35,3.35,0,0,0-2.28-.79,3,3,0,0,0-2.29.84,4,4,0,0,0-1,2.28Z"/></g></g></svg>