<svg xmlns="http://www.w3.org/2000/svg" viewBox="0 0 60 60"><defs><style>.cls-1{fill:none;}.cls-2{fill:#c7c7c7;}</style></defs><title>facebook</title><g id="Capa_2" data-name="Capa 2"><g id="Capa_1-2" data-name="Capa 1"><rect class="cls-1" width="60" height="60"/><path class="cls-2" d="M37.65,14.46h-4c-4.52,0-7.43,3-7.43,7.63V25.6H22.15a.63.63,0,0,0-.63.63v5.1a.63.63,0,0,0,.63.63H26.2V44.82a.63.63,0,0,0,.63.63H32.1a.63.63,0,0,0,.63-.63V32h4.73a.63.63,0,0,0,.63-.63v-5.1a.62.62,0,0,0-.18-.44.64.64,0,0,0-.45-.19H32.73v-3c0-1.43.35-2.16,2.21-2.16h2.71a.63.63,0,0,0,.63-.63V15.09a.63.63,0,0,0-.63-.63Z"/></g></g></svg>