<svg xmlns="http://www.w3.org/2000/svg" viewBox="0 0 60 60"><defs><style>.cls-1{fill:none;}.cls-2{fill:#c7c7c7;}</style></defs><title>instagram</title><g id="Capa_2" data-name="Capa 2"><g id="Capa_1-2" data-name="Capa 1"><rect class="cls-1" width="60" height="60"/><path class="cls-2" d="M36.38,13H23.62A10.63,10.63,0,0,0,13,23.62V36.38A10.63,10.63,0,0,0,23.62,47H36.38A10.63,10.63,0,0,0,47,36.38V23.62A10.63,10.63,0,0,0,36.38,13Zm7.43,23.38a7.43,7.43,0,0,1-7.43,7.43H23.62a7.43,7.43,0,0,1-7.43-7.43V23.62a7.43,7.43,0,0,1,7.43-7.43H36.38a7.43,7.43,0,0,1,7.43,7.43Z"/><path class="cls-2" d="M30,21.5A8.5,8.5,0,1,0,38.5,30,8.51,8.51,0,0,0,30,21.5Zm0,13.81A5.31,5.31,0,1,1,35.31,30,5.31,5.31,0,0,1,30,35.31Z"/><circle class="cls-2" cx="39.14" cy="20.86" r="1.13"/></g></g></svg>